<svg width="417" height="137" viewBox="0 0 417 137" fill="none" xmlns="http://www.w3.org/2000/svg">
<g clip-path="url(#clip0_505_107)">
<path d="M222.014 39.4687V55.3862H171.817V39.4687H222.014ZM184.21 18.5485H204.789V100.524C204.789 103.29 205.206 105.413 206.04 106.891C206.912 108.331 208.049 109.316 209.451 109.847C210.853 110.377 212.407 110.643 214.112 110.643C215.401 110.643 216.576 110.548 217.637 110.358C218.736 110.169 219.57 109.998 220.138 109.847L223.606 125.935C222.507 126.314 220.934 126.731 218.888 127.186C216.879 127.64 214.416 127.906 211.497 127.981C206.343 128.133 201.701 127.356 197.57 125.651C193.439 123.907 190.16 121.216 187.735 117.578C185.347 113.94 184.172 109.392 184.21 103.935V18.5485Z" fill="white"/>
<path d="M244.828 126.788V39.4687H265.407V126.788H244.828ZM255.175 27.0757C251.915 27.0757 249.111 25.9956 246.761 23.8354C244.411 21.6373 243.236 19.0033 243.236 15.9335C243.236 12.8258 244.411 10.1918 246.761 8.03157C249.111 5.83344 251.915 4.73438 255.175 4.73438C258.472 4.73438 261.276 5.83344 263.588 8.03157C265.938 10.1918 267.113 12.8258 267.113 15.9335C267.113 19.0033 265.938 21.6373 263.588 23.8354C261.276 25.9956 258.472 27.0757 255.175 27.0757Z" fill="white"/>
<path d="M312.751 10.3624V126.788H292.172V10.3624H312.751Z" fill="white"/>
<path d="M378.173 128.493C369.418 128.493 361.857 126.674 355.49 123.036C349.161 119.359 344.291 114.167 340.88 107.459C337.469 100.713 335.764 92.7734 335.764 83.6398C335.764 74.6577 337.469 66.7748 340.88 59.9909C344.329 53.1691 349.142 47.8633 355.32 44.0734C361.497 40.2456 368.755 38.3317 377.092 38.3317C382.474 38.3317 387.553 39.2034 392.328 40.9467C397.141 42.6522 401.386 45.3051 405.062 48.9055C408.776 52.5059 411.694 57.0916 413.816 62.6628C415.939 68.196 417 74.7904 417 82.446V88.7561H345.428V74.8851H397.274C397.236 70.9437 396.383 67.438 394.715 64.3682C393.048 61.2605 390.717 58.816 387.723 57.0348C384.767 55.2535 381.318 54.3629 377.377 54.3629C373.17 54.3629 369.475 55.3862 366.291 57.4327C363.108 59.4414 360.625 62.0943 358.844 65.3915C357.101 68.6508 356.21 72.2322 356.172 76.1358V88.2445C356.172 93.3229 357.101 97.6813 358.958 101.32C360.815 104.92 363.411 107.687 366.746 109.619C370.081 111.514 373.985 112.462 378.457 112.462C381.451 112.462 384.161 112.045 386.586 111.211C389.012 110.34 391.115 109.07 392.896 107.402C394.678 105.735 396.023 103.669 396.933 101.206L416.147 103.366C414.934 108.445 412.623 112.879 409.212 116.669C405.839 120.421 401.518 123.339 396.25 125.423C390.982 127.47 384.956 128.493 378.173 128.493Z" fill="white"/>
<path fill-rule="evenodd" clip-rule="evenodd" d="M0 24.623C0 11.0241 11.0241 0 24.623 0H112.409C126.008 0 137.033 11.0241 137.033 24.623V112.409C137.033 126.008 126.008 137.033 112.409 137.033H24.623C11.0241 137.033 0 126.008 0 112.409V24.623ZM24.623 6.4234C14.5717 6.4234 6.4234 14.5717 6.4234 24.623V112.409C6.4234 122.461 14.5717 130.609 24.623 130.609H112.409C122.461 130.609 130.609 122.461 130.609 112.409V24.623C130.609 14.5717 122.461 6.4234 112.409 6.4234H24.623Z" fill="white"/>
<path d="M59.5949 42.109C59.5949 52.9487 50.8075 61.736 39.9678 61.736C29.1281 61.736 20.3408 52.9487 20.3408 42.109C20.3408 31.2692 29.1281 22.4819 39.9678 22.4819C50.8075 22.4819 59.5949 31.2692 59.5949 42.109Z" fill="#F9DC8A"/>
<path d="M59.5949 97.0644C59.5949 107.904 50.8075 116.691 39.9678 116.691C29.1281 116.691 20.3408 107.904 20.3408 97.0644C20.3408 86.2246 29.1281 77.4373 39.9678 77.4373C50.8075 77.4373 59.5949 86.2246 59.5949 97.0644Z" fill="#807EE0"/>
<path d="M114.551 42.109C114.551 52.9487 105.764 61.736 94.9243 61.736C84.0845 61.736 75.2972 52.9487 75.2972 42.109C75.2972 31.2692 84.0845 22.4819 94.9243 22.4819C105.764 22.4819 114.551 31.2692 114.551 42.109Z" fill="#D76FD4"/>
<path d="M114.551 97.0644C114.551 107.904 105.764 116.691 94.9243 116.691C84.0845 116.691 75.2972 107.904 75.2972 97.0644C75.2972 86.2246 84.0845 77.4373 94.9243 77.4373C105.764 77.4373 114.551 86.2246 114.551 97.0644Z" fill="#97DAD6"/>
<circle cx="255.495" cy="16.0077" r="13.4471" fill="#D76FD4"/>
</g>
<defs>
<clipPath id="clip0_505_107">
<rect width="417" height="137" fill="white"/>
</clipPath>
</defs>
</svg>
